<svg width="88" height="20" viewBox="0 0 88 20" fill="none" xmlns="http://www.w3.org/2000/svg">
<g clip-path="url(#clip0_5444_149314)">
<path d="M52.4668 6.05469C51.041 6.05469 49.6472 6.46303 48.4617 7.22808C47.2762 7.99313 46.3522 9.08052 45.8066 10.3528C45.2609 11.625 45.1182 13.0249 45.3963 14.3755C45.6745 15.7261 46.3611 16.9667 47.3693 17.9404C48.3775 18.9141 49.662 19.5773 51.0604 19.8459C52.4588 20.1146 53.9082 19.9767 55.2255 19.4497C56.5428 18.9227 57.6687 18.0303 58.4608 16.8853C59.2529 15.7404 59.6757 14.3942 59.6757 13.0172C59.6757 11.1706 58.9162 9.39968 57.5643 8.09396C56.2123 6.78824 54.3787 6.05469 52.4668 6.05469ZM52.4668 16.8852C51.6747 16.8852 50.9003 16.6584 50.2417 16.2334C49.5831 15.8083 49.0698 15.2042 48.7667 14.4974C48.4635 13.7906 48.3842 13.0129 48.5387 12.2626C48.6933 11.5122 49.0747 10.823 49.6348 10.2821C50.1949 9.7411 50.9085 9.37271 51.6854 9.22346C52.4623 9.07421 53.2676 9.15081 53.9994 9.44357C54.7312 9.73633 55.3567 10.2321 55.7968 10.8682C56.2369 11.5043 56.4717 12.2522 56.4717 13.0172C56.4717 13.5251 56.3681 14.0281 56.1669 14.4974C55.9656 14.9667 55.6706 15.3931 55.2987 15.7523C54.9268 16.1115 54.4853 16.3964 53.9994 16.5908C53.5135 16.7852 52.9927 16.8852 52.4668 16.8852Z" fill="#34432D"/>
<path d="M22.4219 5.89062H25.6259L29.2303 16.1246L33.0889 5.89062H36.2929L30.8323 19.9742H27.6283L22.4219 5.89062Z" fill="#34432D"/>
<path d="M38.8438 1.41406H42.102V19.9807H38.8438V1.41406Z" fill="#34432D"/>
<path d="M65.1143 17.9789C64.4366 16.7643 64.4811 15.6125 64.4811 13.9935V9.15799H62.0781V6.06354H64.4811V1.42188H67.6851V6.06354H70.4886V9.15799H67.6851V13.5903C67.6851 14.7134 67.7509 15.585 68.1025 16.1205C68.0856 16.1076 68.6632 16.7682 70.4886 16.5073V19.6017C67.6851 20.3753 66.25 20.0027 65.1143 17.9789Z" fill="#34432D"/>
<path d="M80.0996 6.05469C78.6738 6.05469 77.28 6.46303 76.0945 7.22808C74.909 7.99313 73.985 9.08052 73.4394 10.3528C72.8937 11.625 72.751 13.0249 73.0291 14.3755C73.3073 15.7261 73.9939 16.9667 75.0021 17.9404C76.0103 18.9141 77.2948 19.5773 78.6932 19.8459C80.0916 20.1146 81.5411 19.9767 82.8583 19.4497C84.1756 18.9227 85.3015 18.0303 86.0936 16.8853C86.8857 15.7404 87.3085 14.3942 87.3085 13.0172C87.3085 11.1706 86.549 9.39968 85.1971 8.09396C83.8451 6.78824 82.0115 6.05469 80.0996 6.05469ZM80.0996 16.8852C79.3075 16.8852 78.5331 16.6584 77.8745 16.2334C77.2159 15.8083 76.7026 15.2042 76.3995 14.4974C76.0963 13.7906 76.017 13.0129 76.1716 12.2626C76.3261 11.5122 76.7075 10.823 77.2676 10.2821C77.8277 9.7411 78.5414 9.37271 79.3182 9.22346C80.0951 9.07421 80.9004 9.15081 81.6322 9.44357C82.364 9.73633 82.9895 10.2321 83.4296 10.8682C83.8697 11.5043 84.1046 12.2522 84.1046 13.0172C84.1046 13.5251 84.001 14.0281 83.7997 14.4974C83.5984 14.9667 83.3034 15.3931 82.9315 15.7523C82.5596 16.1115 82.1181 16.3964 81.6322 16.5908C81.1463 16.7852 80.6255 16.8852 80.0996 16.8852Z" fill="#34432D"/>
<path d="M12.8075 7.73828C12.8112 7.76364 12.8132 7.78918 12.8137 7.81478C12.8137 7.78943 12.8137 7.76364 12.8137 7.73828H12.8075ZM3.20312 7.73828C3.20312 7.76364 3.20312 7.78943 3.20312 7.81478C3.20362 7.78918 3.2057 7.76364 3.20935 7.73828H3.20312Z" fill="#23CE6B"/>
<path d="M16.0199 7.73611H12.8159C12.8159 6.50507 12.3096 5.32444 11.4083 4.45396C10.507 3.58348 9.28457 3.09444 8.00995 3.09444C6.73532 3.09444 5.51291 3.58348 4.61161 4.45396C3.71032 5.32444 3.20398 6.50507 3.20398 7.73611H0C0 5.68437 0.843903 3.71666 2.34606 2.26585C3.84822 0.815052 5.88558 0 8.00995 0C10.1343 0 12.1717 0.815052 13.6738 2.26585C15.176 3.71666 16.0199 5.68437 16.0199 7.73611Z" fill="#23CE6B"/>
<path d="M16.0199 7.73828C16.0199 7.77825 16.0199 7.81822 16.0199 7.85819C15.938 15.5208 8.00995 19.9781 8.00995 19.9781C8.00995 19.9781 0.0827694 15.5208 0 7.85819C0 7.81822 0 7.77825 0 7.73828H3.20398C3.20398 7.76364 3.20398 7.78943 3.20398 7.81478C3.20398 7.82682 3.20398 7.83842 3.20398 7.85045C3.20398 11.8552 8.00995 15.3364 8.00995 15.3364C8.00995 15.3364 12.8159 11.4684 12.8159 7.85045C12.8159 7.83842 12.8159 7.82682 12.8159 7.81478C12.8159 7.78943 12.8159 7.76364 12.8159 7.73828H16.0199Z" fill="#34432D"/>
<path d="M3.2093 7.73828C3.20567 7.76364 3.20361 7.78918 3.20312 7.81478C3.20312 7.78943 3.20312 7.76364 3.20312 7.73828H3.2093Z" fill="#34432D"/>
<path d="M12.8109 7.73828C12.8109 7.76364 12.8109 7.78943 12.8109 7.81478C12.8104 7.78918 12.8083 7.76364 12.8047 7.73828H12.8109Z" fill="#34432D"/>
<path d="M3.2093 7.73828C3.20567 7.76364 3.20361 7.78918 3.20312 7.81478C3.20312 7.78943 3.20312 7.76364 3.20312 7.73828H3.2093Z" fill="#34432D"/>
<path d="M12.8109 7.73828C12.8109 7.76364 12.8109 7.78943 12.8109 7.81478C12.8104 7.78918 12.8083 7.76364 12.8047 7.73828H12.8109Z" fill="#34432D"/>
</g>
<defs>
<clipPath id="clip0_5444_149314">
<rect width="87.3333" height="20" fill="white"/>
</clipPath>
</defs>
</svg>
